<?xml version="1.0" encoding="UTF-8" standalone="no"?>
<svg
   xmlns:dc="http://purl.org/dc/elements/1.1/"
   xmlns:cc="http://creativecommons.org/ns#"
   xmlns:rdf="http://www.w3.org/1999/02/22-rdf-syntax-ns#"
   xmlns:svg="http://www.w3.org/2000/svg"
   xmlns="http://www.w3.org/2000/svg"
   xmlns:xlink="http://www.w3.org/1999/xlink"
   xmlns:sodipodi="http://sodipodi.sourceforge.net/DTD/sodipodi-0.dtd"
   xmlns:inkscape="http://www.inkscape.org/namespaces/inkscape"
   width="278.043"
   height="146.444"
   viewBox="0 0 222.434 117.155"
   version="1.1"
   id="svg97"
   sodipodi:docname="community_logo_emb.svg"
   inkscape:version="0.92.4 (5da689c313, 2019-01-14)">
  <metadata
     id="metadata101">
    <rdf:RDF>
      <cc:Work
         rdf:about="">
        <dc:format>image/svg+xml</dc:format>
        <dc:type
           rdf:resource="http://purl.org/dc/dcmitype/StillImage" />
      </cc:Work>
    </rdf:RDF>
  </metadata>
  <sodipodi:namedview
     pagecolor="#ffffff"
     bordercolor="#666666"
     borderopacity="1"
     objecttolerance="10"
     gridtolerance="10"
     guidetolerance="10"
     inkscape:pageopacity="0"
     inkscape:pageshadow="2"
     inkscape:window-width="1920"
     inkscape:window-height="974"
     id="namedview99"
     showgrid="false"
     inkscape:zoom="1.334326"
     inkscape:cx="138.27206"
     inkscape:cy="73.222"
     inkscape:window-x="0"
     inkscape:window-y="33"
     inkscape:window-maximized="1"
     inkscape:current-layer="svg97" />
  <style
     id="style2"><![CDATA[.B{overflow:visible}.C{stroke:none}.D{writing-mode:lr-tb}]]></style>
  <defs
     id="defs49">
    <symbol
       id="A"
       class="B">
      <path
         d="M-24.937-135.375h-143.297v-6.328h143.297V-270.75H-171.39v-5.937h152.78V0h-153.578v-5.937h147.25z"
         class="C"
         id="path4" />
    </symbol>
    <symbol
       id="B"
       class="B">
      <path
         d="M24.938 0v-264.406L207.813 0h6.328v-277.078h-5.937v266l-184.062-266-5.53-.39V0z"
         class="C"
         id="path7" />
    </symbol>
    <symbol
       id="C"
       class="B">
      <path
         d="M24.938-276.687H18.61V0h155.156v-6.328H24.938z"
         class="C"
         id="path10" />
    </symbol>
    <symbol
       id="D"
       class="B">
      <path
         d="M24.797.28v-64.047H47.36v-1.484H.844v1.484H23.39V.28z"
         class="C"
         id="path13" />
    </symbol>
    <symbol
       id="E"
       class="B">
      <path
         d="M5.78-65.156H4.375V0H5.78v-32.344h40.922V0h1.484v-65.156h-1.484v31.406H5.78z"
         class="C"
         id="path16" />
    </symbol>
    <symbol
       id="F"
       class="B">
      <path
         d="M5.875-31.875h33.75v-1.5H5.875v-30.39H40.36v-1.39H4.375V0h36.172v-1.39H5.875z"
         class="C"
         id="path19" />
    </symbol>
    <symbol
       id="G"
       class="B">
      <path
         d="M67.766-32.625a31.99 31.99 0 0 1-9.219 22.563c-5.78 5.875-13.797 9.5-22.562 9.5s-16.687-3.625-22.47-9.5c-5.687-5.78-9.328-13.703-9.328-22.562s3.64-16.78 9.328-22.562c5.78-5.875 13.703-9.5 22.47-9.5s16.78 3.625 22.563 9.5a31.99 31.99 0 0 1 9.219 22.563zm-65.062 0c0 9.234 3.828 17.61 9.78 23.672 5.97 6.156 14.36 9.89 23.5 9.89 9.234 0 17.516-3.734 23.578-9.89 5.97-6.062 9.797-14.437 9.797-23.672S65.53-50.25 59.563-56.297c-6.062-6.156-14.344-9.89-23.578-9.89-9.14 0-17.53 3.734-23.5 9.89-5.953 6.047-9.78 14.438-9.78 23.672z"
         class="C"
         id="path22" />
    </symbol>
    <symbol
       id="H"
       class="B">
      <path
         d="M5.78-63.766h21.156c24.234 0 24.234 35.234 0 35.234H14.266v1.406L44.28 0h2.14L16.406-27.125h10.53c26.11 0 26.11-38.125 0-38.125H4.375V0H5.78z"
         class="C"
         id="path25" />
    </symbol>
    <symbol
       id="I"
       class="B">
      <path
         d="M5.78-63.11l26.563 39.53h1.22l26.563-39.53V0h1.406v-65.25h-1.5L32.906-25.266 5.875-65.25h-1.5V0H5.78z"
         class="C"
         id="path28" />
    </symbol>
    <symbol
       id="J"
       class="B">
      <path
         d="M4.375-64.5V0h1.5v-24.797h21.063c26.11 0 26.11-40.453 0-40.453H4.375zm1.5 38.313v-37.578h21.063c24.234 0 24.234 37.578 0 37.578z"
         class="C"
         id="path31" />
    </symbol>
    <symbol
       id="K"
       class="B">
      <path
         d="M5.78-63.766h21.156c24.234 0 24.234 35.234 0 35.234H14.266v1.406L44.28 0h2.14L16.406-27.125h10.53c26.11 0 26.11-38.125 0-38.125H4.375V0H5.78z"
         class="C"
         id="path34" />
    </symbol>
    <symbol
       id="L"
       class="B">
      <path
         d="M67.03-32.625c0 8.86-3.547 16.78-9.234 22.563-5.78 5.875-13.797 9.5-22.562 9.5s-16.687-3.625-22.47-9.5c-5.687-5.78-9.312-13.703-9.312-22.562s3.625-16.78 9.313-22.562c5.78-5.875 13.703-9.5 22.47-9.5s16.78 3.625 22.563 9.5c5.688 5.78 9.234 13.703 9.234 22.563zm-65.078 0c0 9.234 3.828 17.61 9.797 23.672C17.72-2.797 26.094.938 35.234.938c9.234 0 17.53-3.734 23.594-9.89 5.953-6.062 9.78-14.437 9.78-23.672s-3.828-17.625-9.78-23.672c-6.062-6.156-14.36-9.89-23.594-9.89-9.14 0-17.516 3.734-23.484 9.89C5.78-50.25 1.953-41.86 1.953-32.625z"
         class="C"
         id="path37" />
    </symbol>
    <symbol
       id="M"
       class="B">
      <path
         d="M27.5-.844L2.14-65.156H.563L26.75 1.03h1.594L54.53-65.156h-1.578z"
         class="C"
         id="path40" />
    </symbol>
    <symbol
       id="N"
       class="B">
      <path
         d="M5.875-31.875h33.75v-1.5H5.875v-30.39H40.36v-1.39H4.375V0h36.172v-1.39H5.875z"
         class="C"
         id="path43" />
    </symbol>
    <clipPath
       id="O">
      <path
         d="M13.185 8.904h754.178V309.52H13.185z"
         fill="#00f"
         fill-rule="evenodd"
         stroke="#000"
         stroke-width=".8"
         stroke-linejoin="miter"
         stroke-opacity="1"
         id="path46" />
    </clipPath>
  </defs>
  <g
     clip-path="url(#O)"
     transform="matrix(.305633 0 0 .259714 -6.226327 -6.343644)"
     id="g91">
    <use
       xlink:href="#A"
       x="348.217"
       y="301.894"
       width="770"
       height="415"
       id="use51" />
    <use
       xlink:href="#B"
       x="529.649"
       y="301.894"
       width="770"
       height="415"
       id="use53" />
    <use
       xlink:href="#C"
       x="6.128"
       y="301.894"
       width="770"
       height="415"
       id="use55" />
    <g
       fill="none"
       stroke="#000"
       stroke-width="6.384"
       id="g61">
      <path
         d="M326.668 27.367l112.004 266.547L550.398 27.367"
         id="path57" />
      <path
         d="M381.398 161.437h113.945"
         id="path59" />
    </g>
    <use
       xlink:href="#D"
       x="26.007"
       y="388.084"
       width="770"
       height="415"
       id="use63" />
    <use
       xlink:href="#E"
       x="74.57"
       y="388.084"
       width="770"
       height="415"
       id="use65" />
    <use
       xlink:href="#F"
       x="127.049"
       y="388.084"
       width="770"
       height="415"
       id="use67" />
    <use
       xlink:href="#G"
       x="170.02"
       y="388.084"
       width="770"
       height="415"
       id="use69" />
    <use
       xlink:href="#H"
       x="241.793"
       y="388.084"
       width="770"
       height="415"
       id="use71" />
    <use
       xlink:href="#F"
       x="291.102"
       y="388.084"
       width="770"
       height="415"
       id="use73" />
    <use
       xlink:href="#I"
       x="334.073"
       y="388.084"
       width="770"
       height="415"
       id="use75" />
    <use
       xlink:href="#b"
       x="399.974"
       y="388.084"
       width="770"
       height="415"
       id="use77" />
    <use
       xlink:href="#J"
       x="432.785"
       y="388.084"
       width="770"
       height="415"
       id="use79" />
    <use
       xlink:href="#K"
       x="481.348"
       y="388.084"
       width="770"
       height="415"
       id="use81" />
    <use
       xlink:href="#L"
       x="530.471"
       y="388.084"
       width="770"
       height="415"
       id="use83" />
    <use
       xlink:href="#M"
       x="599.169"
       y="388.084"
       width="770"
       height="415"
       id="use85" />
    <use
       xlink:href="#N"
       x="654.164"
       y="388.084"
       width="770"
       height="415"
       id="use87" />
    <use
       xlink:href="#K"
       x="697.135"
       y="388.084"
       width="770"
       height="415"
       id="use89" />
  </g>
  <g
     aria-label="Community"
     style="font-style:italic;font-size:45.44499969px;font-family:Fontin;letter-spacing:0;word-spacing:0;writing-mode:lr-tb"
     id="text95">
    <path
       d="m 21.435567,98.071928 q 0.04438,0.08876 0.04438,0.399419 0,2.041473 -1.708626,3.705723 -1.708625,1.64205 -4.304849,2.52965 -2.574033,0.86541 -5.392155,0.86541 -2.5518435,0 -4.5267483,-0.86541 -1.9527148,-0.8876 -3.1509716,-2.44089 Q 1.1983402,100.69034 0.59921183,98.648866 8.3420426e-5,96.585202 8.3420426e-5,94.122118 q 0,-4.371418 1.375776379574,-8.077138 1.3979663,-3.705721 3.7501001,-6.190994 2.3743237,-2.507463 5.5252951,-3.90543 3.173162,-1.420156 6.701362,-1.420156 2.840313,0 5.148067,1.109497 2.329944,1.109497 2.795932,2.662793 -0.155329,0.798838 -1.309206,2.241184 -1.131687,1.420156 -2.263374,1.886145 l -0.643508,-0.576938 q 0.04438,-0.15533 0.04438,-0.421609 0,-0.576939 -0.266279,-1.242637 -0.266279,-0.687888 -0.798838,-1.353586 -0.510368,-0.687888 -1.508916,-1.131687 -0.998547,-0.443799 -2.285564,-0.443799 -2.729362,0 -4.948357,1.420156 -2.2189937,1.397966 -3.5725801,3.66134 -1.3535864,2.263374 -2.0858545,4.948357 -0.7100781,2.684983 -0.7100781,5.414346 0,2.085855 0.4437988,3.81667 0.4437989,1.730815 1.3535865,3.084402 0.9097876,1.353586 2.3965136,2.108046 1.5089158,0.75446 3.4838208,0.75446 2.174614,0 4.726457,-1.15388 2.574034,-1.15388 4.08295,-3.239732 z"
       style="font-weight:normal;writing-mode:lr-tb"
       id="path908" />
    <path
       d="m 39.631318,81.939841 q -2.485274,0 -4.748648,1.131687 -2.241184,1.109497 -3.905429,3.062211 -1.664246,1.952715 -2.662793,4.726458 -0.998548,2.773743 -1.042928,5.924714 -0.02219,1.176067 0.11095,2.241184 0.13314,1.065115 0.554749,2.307755 0.443798,1.24264 1.153877,2.15242 0.710078,0.8876 1.974904,1.48673 1.287017,0.59913 2.973453,0.59913 2.596223,0 4.903977,-1.24264 2.307753,-1.26483 3.905429,-3.32849 1.619866,-2.085854 2.574033,-4.793027 0.954168,-2.707173 0.976358,-5.591865 0.06657,-4.08295 -1.819575,-6.368514 -1.863955,-2.307753 -4.948357,-2.307753 z m -1.908335,2.307753 q 2.085854,0 3.217541,1.974905 1.131687,1.974905 1.065117,5.303396 -0.04438,4.970547 -2.019284,8.387798 -1.952715,3.417247 -4.437988,3.417247 -1.952715,0 -2.973453,-1.99709 -1.020737,-2.019285 -0.931977,-5.303397 0.02219,-0.976357 0.177519,-2.263374 0.15533,-1.309206 0.576939,-3.017832 0.443799,-1.730815 1.065117,-3.128781 0.643508,-1.420157 1.753005,-2.396514 1.109497,-0.976358 2.507464,-0.976358 z"
       style="font-weight:normal;writing-mode:lr-tb"
       id="path910" />
    <path
       d="m 57.25013,87.886745 q 0.665699,-0.954168 1.642056,-1.930525 0.976357,-0.976358 2.218994,-1.930525 1.242637,-0.954167 2.729363,-1.553296 1.486726,-0.621318 2.862502,-0.621318 1.686436,0 2.862503,1.309206 1.176067,1.287017 1.020737,3.594771 -0.06657,0.244089 -0.15533,1.042927 0.687889,-0.954167 1.642056,-1.908335 0.976358,-0.976357 2.196804,-1.908335 1.220447,-0.954167 2.684983,-1.531106 1.464536,-0.599128 2.840313,-0.599128 1.686435,0 2.862502,1.309206 1.176067,1.287017 0.998547,3.594771 -0.06657,0.821028 -0.798837,4.548938 -0.732268,3.72791 -1.420157,7.744289 -0.687888,4.016375 -0.687888,5.924715 H 76.44443 q 0,-0.26628 0.310659,-2.17461 1.597676,-8.365613 2.374323,-13.26959 0.24409,-2.063664 -0.177519,-3.084401 -0.421609,-1.020738 -1.730815,-1.020738 -1.819576,0 -3.81667,1.287017 -1.997095,1.287017 -3.328492,2.995642 -0.621318,2.884692 -1.531106,8.010569 -0.887597,5.125881 -0.887597,7.256111 h -4.304849 q 0,-0.26628 0.310659,-2.17461 2.019285,-10.362707 2.374324,-13.26959 0.244089,-2.085854 -0.177519,-3.084401 -0.421609,-1.020738 -1.730816,-1.020738 -1.863955,0 -3.905429,1.353587 -2.041475,1.331396 -3.328492,3.062212 -0.110949,0.710078 -0.865407,4.881787 -0.754458,4.149519 -1.220447,6.834503 -0.19971,1.42015 -0.266279,2.59622 v 0.82103 h -4.415799 v -0.17752 l 3.261922,-17.086255 q 0.199709,-0.954167 -0.11095,-1.819575 -0.310659,-0.865408 -1.020737,-0.865408 -0.2219,0 -0.355039,0.04438 l -0.421609,-0.732268 q 0.732268,-0.887597 2.130234,-1.597676 1.397966,-0.710078 2.684983,-0.710078 1.686435,0 1.686435,2.130235 0,1.397966 -0.732268,3.72791 z"
       style="font-weight:normal;writing-mode:lr-tb"
       id="path912" />
    <path
       d="m 94.88427,87.886745 q 0.665699,-0.954168 1.642056,-1.930525 0.976357,-0.976358 2.218994,-1.930525 1.242637,-0.954167 2.72936,-1.553296 1.48673,-0.621318 2.86251,-0.621318 1.68643,0 2.8625,1.309206 1.17606,1.287017 1.02074,3.594771 -0.0666,0.244089 -0.15533,1.042927 0.68788,-0.954167 1.64205,-1.908335 0.97636,-0.976357 2.19681,-1.908335 1.22044,-0.954167 2.68498,-1.531106 1.46453,-0.599128 2.84031,-0.599128 1.68644,0 2.8625,1.309206 1.17607,1.287017 0.99855,3.594771 -0.0666,0.821028 -0.79884,4.548938 -0.73227,3.72791 -1.42015,7.744289 -0.68789,4.016375 -0.68789,5.924715 h -4.30485 q 0,-0.26628 0.31066,-2.17461 1.59767,-8.365613 2.37432,-13.26959 0.24409,-2.063664 -0.17752,-3.084401 -0.42161,-1.020738 -1.73081,-1.020738 -1.81958,0 -3.81667,1.287017 -1.9971,1.287017 -3.32849,2.995642 -0.62132,2.884692 -1.53111,8.010569 -0.8876,5.125881 -0.8876,7.256111 h -4.30485 q 0,-0.26628 0.31066,-2.17461 2.01929,-10.362707 2.37433,-13.26959 0.24409,-2.085854 -0.17752,-3.084401 -0.42161,-1.020738 -1.73082,-1.020738 -1.863953,0 -3.905427,1.353587 -2.041475,1.331396 -3.328492,3.062212 -0.110949,0.710078 -0.865407,4.881787 -0.754458,4.149519 -1.220447,6.834503 -0.19971,1.42015 -0.266279,2.59622 v 0.82103 h -4.415799 v -0.17752 l 3.261922,-17.086255 q 0.199709,-0.954167 -0.11095,-1.819575 -0.310659,-0.865408 -1.020737,-0.865408 -0.2219,0 -0.355039,0.04438 l -0.421609,-0.732268 q 0.732268,-0.887597 2.130234,-1.597676 1.397966,-0.710078 2.684983,-0.710078 1.686435,0 1.686435,2.130235 0,1.397966 -0.732268,3.72791 z"
       style="font-weight:normal;writing-mode:lr-tb"
       id="path914" />
    <path
       d="m 140.21832,85.068622 -0.42161,-0.732268 q 0.73227,-0.909787 2.10805,-1.597676 1.39796,-0.710078 2.70717,-0.710078 1.68643,0 1.68643,2.130235 0,0.665698 -0.2219,1.886145 -0.22189,1.198257 -0.4216,1.841765 l -2.219,11.960378 q -0.0888,0.710077 -0.0888,0.998547 0,1.04293 0.51037,1.50892 0.53256,0.4438 1.26483,0.4438 0.55475,0 0.99854,-0.17752 l 0.31066,0.79883 q -0.95416,0.84322 -2.48527,1.50892 -1.53111,0.64351 -2.55184,0.64351 -2.50747,0 -2.50747,-2.68498 0,-1.44235 0.64351,-3.239736 -0.6657,0.954166 -1.64205,1.952716 -0.97636,0.97636 -2.219,1.93052 -1.24263,0.95417 -2.72936,1.5533 -1.48673,0.62132 -2.8625,0.62132 -1.57549,0 -2.72937,-1.17607 -1.13168,-1.17607 -1.13168,-3.23973 0,-0.8876 1.02073,-6.102235 1.04293,-5.236826 1.3314,-7.47801 0.0444,-0.177519 0.0444,-0.599128 0,-0.887598 -0.28847,-1.486726 -0.28847,-0.599129 -0.8876,-0.599129 -0.2219,0 -0.35504,0.04438 l -0.4216,-0.732268 q 0.73226,-0.909787 2.10804,-1.597676 1.39797,-0.710078 2.70717,-0.710078 1.68644,0 1.68644,2.130235 0,1.198257 -0.57694,3.72791 -0.31066,1.508916 -0.97636,4.304848 -0.6657,2.773743 -0.97635,4.371419 -0.28847,1.597676 -0.28847,2.729363 0,1.397965 0.53255,2.108045 0.55475,0.71008 1.79739,0.71008 1.84177,0 3.90543,-1.3314 2.06366,-1.353586 3.3063,-3.084401 0.0666,-0.421609 0.39942,-2.218994 0.33285,-1.819575 0.71008,-3.92762 0.37723,-2.108044 0.71008,-4.016379 v -0.421609 q 0,-2.085855 -1.13169,-2.085855 -0.2219,0 -0.35504,0.04438 z"
       style="font-weight:normal;writing-mode:lr-tb"
       id="path916" />
    <path
       d="m 157.54867,87.886745 q 0.6657,-0.954168 1.64205,-1.930525 0.97636,-0.976358 2.219,-1.930525 1.24264,-0.954167 2.72936,-1.553296 1.48673,-0.621318 2.8625,-0.621318 1.68644,0 2.86251,1.309206 1.17606,1.287017 1.02073,3.594771 -0.0666,0.798838 -0.82102,4.548938 -0.73227,3.72791 -1.42016,7.744289 -0.68789,4.016375 -0.68789,5.924715 h -4.30485 q 0,-0.26628 0.31066,-2.17461 2.01929,-10.362707 2.37433,-13.26959 0.24408,-2.085854 -0.17752,-3.084401 -0.42161,-1.020738 -1.73082,-1.020738 -1.86395,0 -3.90543,1.353587 -2.04147,1.331396 -3.32849,3.062212 -0.11095,0.710078 -0.86541,4.881787 -0.75446,4.149519 -1.22044,6.834503 -0.19971,1.42015 -0.26628,2.59622 v 0.82103 h -4.4158 v -0.17752 l 3.26192,-17.086255 q 0.19971,-0.954167 -0.11095,-1.819575 -0.31066,-0.865408 -1.02074,-0.865408 -0.2219,0 -0.35504,0.04438 l -0.42161,-0.732268 q 0.73227,-0.887597 2.13024,-1.597676 1.39796,-0.710078 2.68498,-0.710078 1.68644,0 1.68644,2.130235 0,1.397966 -0.73227,3.72791 z"
       style="font-weight:normal;writing-mode:lr-tb"
       id="path918" />
    <path
       d="m 179.78299,75.837607 q 0,-0.954168 0.71008,-1.642056 0.71008,-0.710078 1.70862,-0.710078 0.95417,0 1.61987,0.710078 0.68789,0.687888 0.68789,1.642056 -0.0444,0.976357 -0.75446,1.730815 -0.71008,0.732268 -1.66425,0.732268 -0.97635,0 -1.66424,-0.732268 -0.68789,-0.754458 -0.64351,-1.730815 z m -4.54894,29.135393 0.0444,-0.17752 q 3.32849,-17.419104 3.32849,-18.129182 0.0222,-0.821028 -0.33284,-1.220447 -0.35504,-0.421609 -0.90979,-0.421609 -0.2219,0 -0.35504,0.04438 l -0.39942,-0.732268 q 0.77665,-0.909787 2.15242,-1.597676 1.37578,-0.710078 2.6628,-0.710078 0.8654,0 1.28701,0.599129 0.42161,0.599128 0.37723,1.531106 0,0.421609 -0.2219,1.397966 -0.19971,0.976357 -0.46599,2.063665 -0.26628,1.065117 -0.31066,1.264826 -0.1997,1.042927 -1.02073,5.924714 -0.79884,4.859598 -1.1095,6.745744 -0.26628,1.42015 -0.26628,2.59622 0,0.55475 -0.0444,0.82103 z"
       style="font-weight:normal;writing-mode:lr-tb"
       id="path920" />
    <path
       d="m 196.62515,78.833249 -1.22045,3.77229 h 5.34778 q 0.59913,0 0.99854,-0.13314 0.42161,-0.13314 0.53256,-0.266279 l 0.11095,-0.13314 q 0,0.04438 0.0222,0.15533 0.0222,0.110949 0.0222,0.155329 0,1.375777 -1.17606,2.196805 -1.15388,0.798837 -2.77375,0.798837 -0.39942,0 -1.46453,-0.04438 -1.06512,-0.04438 -1.48673,-0.04438 -0.51037,0 -0.64351,0.04438 -0.0222,0.798837 -1.22044,6.368513 -1.19826,5.547485 -1.22045,7.45582 -0.0444,1.353585 0.57694,2.041475 0.64351,0.68789 2.24118,0.68789 1.19826,0 2.66279,-0.79884 1.48673,-0.82103 2.06367,-1.442346 v 0.421606 q -0.0222,1.5533 -1.1095,2.8625 -1.08731,1.28702 -2.68498,1.97491 -1.59768,0.6657 -3.21754,0.6657 -2.08586,0 -3.43944,-1.15388 -1.35359,-1.15388 -1.3314,-3.35068 0.0222,-1.819575 1.3314,-7.322681 1.3092,-5.525295 1.35358,-7.2783 0,-0.665699 -0.13314,-0.954168 -0.15533,-0.332849 -0.37723,-0.599128 -0.1997,-0.28847 -0.39941,-0.443799 -0.17752,-0.15533 -0.35504,-0.266279 -0.17752,-0.11095 -0.33285,-0.15533 -0.13314,-0.04438 -0.19971,-0.06657 h -0.0666 l 0.51037,-1.375776 q 0.2219,0 0.48818,-0.06657 0.26627,-0.06657 0.93197,-0.355039 0.68789,-0.288469 1.59768,-1.153877 0.93198,-0.865408 1.93052,-2.196804 z"
       style="font-weight:normal;writing-mode:lr-tb"
       id="path922" />
    <path
       d="m 212.53535,101.24509 q 2.68498,-4.282659 4.79302,-8.543128 2.10805,-4.282659 2.10805,-6.412893 0,-1.087307 -0.51037,-1.974905 -0.48818,-0.887597 -1.48673,-1.109497 0.59913,-0.998547 2.26338,-0.998547 2.72936,0 2.72936,2.862502 0,1.997095 -1.15388,4.770838 -1.13168,2.773742 -2.4187,5.037116 -1.30921,2.285564 -2.6406,4.460178 -1.3314,2.152426 -3.08441,4.837406 -1.73081,2.66279 -3.41725,4.8596 -1.66424,2.1968 -3.35068,4.08295 -1.68643,1.90833 -3.26192,2.97345 -1.5533,1.06512 -2.75155,1.06512 -1.57549,0 -2.50747,-0.79884 -0.95416,-0.79884 -0.95416,-2.10804 0,-1.04293 0.33285,-1.95272 0.0888,0.55475 0.95416,0.8876 0.86541,0.33285 1.86396,0.33285 4.06076,0 9.58605,-7.944 -0.62131,-0.26628 -0.97635,-0.86541 -0.35504,-0.59913 -0.39942,-1.15388 -0.0222,-0.55475 -0.13314,-1.04292 l -1.90834,-13.025499 q -0.17752,-1.420157 -0.48818,-2.396514 -0.31066,-0.976357 -0.68788,-1.397966 -0.35504,-0.421609 -0.64351,-0.554749 -0.26628,-0.15533 -0.53256,-0.15533 l -0.28847,0.04438 -0.4438,-0.776648 q 0.93198,-0.887597 2.1968,-1.553295 1.26483,-0.665699 2.30776,-0.665699 1.13169,0 1.59767,0.643509 0.48818,0.621318 0.48818,2.130234 -0.0666,1.686436 1.81958,13.313965 0.13314,1.109497 0.99855,3.128782 z"
       style="font-weight:normal;writing-mode:lr-tb"
       id="path924" />
  </g>
</svg>
